<?xml version="1.0" encoding="UTF-8" standalone="no"?>
<svg
   version="1.1"
   id="svg2"
   width="2200"
   height="1333.3333"
   viewBox="0 0 2200 1333.3333"
   xmlns="http://www.w3.org/2000/svg"
   xmlns:svg="http://www.w3.org/2000/svg">
  <g
     id="g8"
     transform="matrix(1.3333333,0,0,-1.3333333,0,1333.3333)">
    <g
       id="g12">
      <g
         id="g20"
         transform="translate(1397.3733,295.6834)">
        <path
           d="m 0,0 h -146.113 c 16.938,18.572 31.567,38.263 43.718,58.988 6.216,10.601 11.692,21.365 16.489,32.264 h -18.62 C -120.012,58.372 -142.075,27.689 -169.565,0 h -185.156 c 12.508,28.316 22.297,58.986 29.144,91.252 h -17.322 C -350.147,58.365 -360.492,27.695 -373.359,0 h -370.792 c -12.87,27.696 -23.222,58.362 -30.471,91.252 h -17.319 C -785.094,58.986 -775.304,28.316 -762.796,0 h -199.147 c -27.496,27.695 -49.602,58.365 -65.09,91.252 h -18.632 c 4.797,-10.899 10.272,-21.663 16.488,-32.264 12.152,-20.725 26.781,-40.416 43.719,-58.988 h -159.289 c -82.565,57.57 -131.191,128.102 -131.191,204.316 0,82.087 56.383,157.595 150.85,217.404 h 152.138 c -22.35,-22.321 -41.178,-46.41 -56.227,-72.074 -2.032,-3.467 -3.964,-6.956 -5.845,-10.456 h 19.398 c 17.195,29.805 39.894,57.541 67.216,82.53 h 191.641 c -12.411,-25.565 -22.454,-53.3 -30.048,-82.53 h 17.57 c 8.046,29.796 18.64,57.548 31.423,82.53 h 358.127 c 12.783,-24.982 23.376,-52.734 31.422,-82.53 h 17.57 c -7.593,29.23 -17.636,56.965 -30.047,82.53 h 177.587 c 27.322,-24.989 50.021,-52.725 67.215,-82.53 h 19.399 c -1.881,3.5 -3.813,6.989 -5.846,10.456 -15.048,25.664 -33.877,49.753 -56.226,72.074 H -19.659 C 74.808,361.911 131.191,286.403 131.191,204.316 131.191,128.101 82.567,57.569 0,0 m -351.589,-129.355 c 51.327,17.579 98.676,41.601 140.112,71.493 16.086,11.603 30.959,23.896 44.637,36.802 h 134.159 c -83.146,-49.59 -193.172,-87.559 -318.908,-108.295 m -31.781,76.013 c 6.669,10.279 12.886,21.06 18.642,32.282 h 172.494 c -70.217,-60.494 -168.108,-103.702 -279.667,-119.419 33.05,18.656 63.193,48.08 88.531,87.137 m -168.859,-93.532 c -3.281,-0.046 -6.576,-0.064 -9.869,-0.087 -68.869,1.526 -130.318,50.162 -171.463,125.901 h 349.617 c -40.508,-74.581 -100.704,-122.883 -168.285,-125.814 M -939.365,-21.06 h 186.575 c 5.757,-11.222 11.974,-22.003 18.643,-32.282 26.417,-40.72 58.053,-70.976 92.765,-89.466 -119.144,13.394 -223.956,57.957 -297.983,121.748 m -172.706,0 h 147.34 c 13.678,-12.906 28.55,-25.199 44.637,-36.802 44.534,-32.126 95.898,-57.473 151.69,-75.328 -136.052,19.672 -255.108,59.308 -343.667,112.13 m 343.668,562.883 c -55.792,-17.854 -107.157,-43.201 -151.691,-75.328 -10.556,-7.614 -20.573,-15.533 -30.098,-23.714 h -138.817 c 85.712,46.285 196.033,81.029 320.606,99.042 m 34.256,-79.848 c -4.023,-6.201 -7.825,-12.643 -11.52,-19.194 h -177.764 c 72.791,56.783 171.225,96.201 282.049,108.66 -34.712,-18.489 -66.348,-48.746 -92.765,-89.466 m 172.057,93.62 c 3.288,-0.024 6.579,-0.042 9.856,-0.088 63.551,-2.754 120.584,-45.609 160.85,-112.726 h -334.749 c 40.938,68.238 99.213,111.38 164.043,112.814 m 353.95,-112.814 h -163.71 c -3.696,6.551 -7.497,12.993 -11.52,19.194 -25.338,39.057 -55.481,68.481 -88.532,87.137 103.355,-14.561 195.001,-52.693 263.762,-106.331 m 152.402,0 h -125.641 c -9.525,8.181 -19.543,16.1 -30.098,23.714 -41.436,29.892 -88.786,53.915 -140.113,71.494 114.439,-18.873 215.863,-52.013 295.852,-95.208 m -11.57,25.132 c -130.029,64.933 -300.932,101.788 -483.299,104.51 -0.453,0.009 -0.903,0.027 -1.355,0.036 -2.261,0.09 -4.526,0.145 -6.797,0.145 -0.76,0 -1.516,-0.032 -2.276,-0.042 -1.584,0.011 -3.164,0.042 -4.75,0.042 -0.901,0 -1.797,-0.021 -2.697,-0.024 -1.299,0.003 -2.592,0.024 -3.891,0.024 -190.506,0 -369.875,-37.18 -505.065,-104.691 -138.931,-69.379 -215.444,-162.992 -215.444,-263.597 0,-100.603 76.513,-194.217 215.444,-263.596 135.19,-67.511 314.559,-104.691 505.065,-104.691 1.299,0 2.592,0.021 3.891,0.024 0.9,-0.003 1.796,-0.024 2.697,-0.024 1.586,0 3.166,0.031 4.75,0.042 0.76,-0.01 1.516,-0.042 2.276,-0.042 2.271,0 4.536,0.055 6.797,0.145 0.452,0.009 0.902,0.026 1.355,0.036 182.367,2.722 353.27,39.577 483.299,104.51 138.931,69.379 215.443,162.993 215.443,263.596 0,100.605 -76.512,194.218 -215.443,263.597 m -21.09,-275.77 -119.419,96.145 H -239.69 V 150.024 h 31.873 v 96.828 c 29.11,-23.405 119.419,-96.828 119.419,-96.828 h 31.873 v 138.264 h -31.873 z m -257.119,-19.948 c -2.394,-0.531 -5.117,-0.242 -7.555,-0.56 -17.299,0.263 -31.408,14.978 -32.826,31.68 -0.542,6.405 0.945,12.399 4.247,17.913 7.557,12.621 23.799,41.885 24.456,42.802 2.778,3.888 5.532,3.929 8.247,0.036 1.354,-1.946 16.587,-30.524 23.635,-41.307 13.138,-20.098 0.884,-45.881 -20.204,-50.564 m 66.46,114.942 c -4.305,1.236 -8.958,1.7 -13.462,1.741 -19.815,0.181 -43.046,0.079 -62.861,0.079 -19.704,0 -39.408,0.058 -59.112,-0.05 -3.841,-0.021 -7.784,-0.263 -11.502,-1.148 -15.671,-3.733 -24.936,-15.895 -25.166,-33.75 -0.301,-23.215 -0.108,-46.438 -0.056,-69.656 0.023,-7.425 1.633,-14.496 5.909,-20.694 7.255,-10.516 17.753,-14.324 30.093,-14.313 39.864,0.033 83.135,0.012 122.999,0.018 1.367,0 2.733,0.038 4.098,0.102 17.992,0.853 31.565,13.947 31.875,31.928 0.432,25.146 0.35,50.308 0.017,75.457 -0.19,14.54 -9.379,26.428 -22.832,30.286 m -775.184,-110.24 c 0,0 10e-4,79.24 -0.01,111.391 h -33.096 c -0.01,-41.102 -0.01,-92.406 0,-133.507 0,-1.998 -0.01,-4.837 -0.01,-4.837 0,0 21.439,-0.012 29.635,-0.012 45.799,0 98.408,-0.003 144.207,0.003 v 26.962 c -43.054,0.003 -140.734,0 -140.734,0 m 316.007,111.386 c -0.002,-29.031 0,-67.602 -0.002,-96.633 0,-12.294 -2.457,-14.747 -14.818,-14.75 -32.003,-0.006 -67.954,-0.009 -99.958,0.012 -1.931,0 -3.876,0.082 -5.792,0.309 -5.535,0.652 -8.336,3.587 -8.762,9.119 -0.114,1.472 -0.065,2.959 -0.065,4.437 -0.003,29.322 0,68.184 -0.003,97.506 h -33.107 c -0.003,-30.398 -0.009,-70.341 0.011,-100.739 0.006,-2.615 0.12,-5.238 0.328,-7.846 1.194,-15.03 9.925,-25.251 24.616,-28.382 4.303,-0.917 8.792,-1.294 13.2,-1.323 19.134,-0.14 38.268,-0.058 57.4,-0.061 19.134,0 42.216,-0.038 61.351,0.032 3.63,0.015 7.302,0.19 10.883,0.745 13.173,2.041 22.584,8.801 26.129,22.125 1.043,3.914 1.595,8.077 1.61,12.128 0.122,31.259 0.085,72.061 0.074,103.321 z m 234.719,-0.003 -75.436,-102.861 -75.435,102.861 h -30.279 c 0,0 -0.071,-46.724 -0.071,-67.211 v -64.875 l 0.003,-6.254 6.414,-0.008 c 0,0 17.874,-0.005 26.807,0.004 0.003,30.889 0.003,81.199 0.003,81.199 0,0 39.892,-51.227 59.196,-80.839 h 6.597 13.53 6.598 c 19.303,29.612 59.195,80.839 59.195,80.839 0,0 0,-50.31 0.004,-81.199 8.932,-0.009 26.807,-0.004 26.807,-0.004 l 6.414,0.008 0.003,6.254 v 64.875 c 0,20.487 -0.071,67.211 -0.071,67.211 z"
           style="fill:#ffffff;fill-opacity:1;fill-rule:nonzero;stroke:none"
           id="path22" />
      </g>
    </g>
  </g>
</svg>